<svg xmlns="http://www.w3.org/2000/svg" width="70" height="48" fill="none"><g clip-path="url(#a)"><rect width="59.78" height="32" y="15.721" fill="#E01D68" rx="16"/><path fill="#fff" d="M12.978 37.221v-11.2h2.048v9.6h4.96v1.6h-7.008zm11.54.192c-.991 0-1.76-.31-2.303-.928-.534-.618-.8-1.525-.8-2.72v-4.48h2.032v4.288c0 .683.138 1.206.416 1.568.277.363.714.544 1.312.544.565 0 1.029-.203 1.392-.608.373-.405.56-.97.56-1.696v-4.096h2.048v7.936h-1.808l-.16-1.344c-.246.47-.603.843-1.072 1.12-.459.278-.998.416-1.616.416zm6.559-.192v-11.52h2.048v6.8l2.816-3.216h2.432l-3.248 3.616 3.776 4.32h-2.56l-3.216-3.984v3.984h-2.048zm12.093.192c-.8 0-1.509-.17-2.128-.512a3.705 3.705 0 0 1-1.456-1.44c-.352-.618-.527-1.333-.527-2.144 0-.821.17-1.552.512-2.192a3.791 3.791 0 0 1 1.44-1.488c.618-.363 1.343-.544 2.175-.544.78 0 1.467.17 2.065.512a3.61 3.61 0 0 1 1.392 1.408c.34.587.511 1.243.511 1.968 0 .117-.005.24-.016.368 0 .128-.005.262-.015.4H41.09c.042.619.255 1.104.64 1.456.394.352.869.528 1.423.528.416 0 .763-.09 1.04-.272a1.77 1.77 0 0 0 .64-.736h2.08c-.149.502-.4.96-.752 1.376a3.616 3.616 0 0 1-1.28.96c-.5.235-1.072.352-1.712.352zm.017-6.656c-.502 0-.944.144-1.328.432-.385.277-.63.704-.736 1.28h3.952c-.033-.523-.225-.939-.577-1.248-.351-.31-.789-.464-1.311-.464z"/><path fill="#E01D68" fill-rule="evenodd" d="M51.086 9.045 68.92.861l-4.218 19.32-5.154-7.63-8.462-3.506z" clip-rule="evenodd"/></g><defs><clipPath id="a"><path fill="#fff" d="M0 0h70v48H0z"/></clipPath></defs></svg>