<svg xmlns="http://www.w3.org/2000/svg" width="70" height="48" fill="none"><g clip-path="url(#a)"><rect width="59.78" height="32" fill="#FF5C00" rx="16" transform="matrix(-1 0 0 1 69.781 0)"/><path fill="#fff" d="M22.48 21.5V10.3h2.431l3.568 7.104L32 10.3h2.432v11.2h-2.048v-7.728l-3.12 6.128h-1.616l-3.12-6.128V21.5H22.48zm17.732.192c-.8 0-1.51-.17-2.128-.512a3.705 3.705 0 0 1-1.456-1.44c-.352-.619-.528-1.333-.528-2.144 0-.821.17-1.552.512-2.192a3.791 3.791 0 0 1 1.44-1.488c.619-.363 1.344-.544 2.176-.544.779 0 1.467.17 2.064.512.597.341 1.061.81 1.392 1.408.341.587.512 1.243.512 1.968 0 .117-.005.24-.016.368 0 .128-.005.261-.016.4h-6.032c.043.619.256 1.104.64 1.456.395.352.87.528 1.424.528.416 0 .763-.09 1.04-.272a1.77 1.77 0 0 0 .64-.736h2.08a3.8 3.8 0 0 1-.752 1.376 3.616 3.616 0 0 1-1.28.96c-.501.235-1.072.352-1.712.352zm.016-6.656c-.501 0-.944.144-1.328.432-.384.277-.63.704-.736 1.28h3.952c-.032-.523-.224-.939-.576-1.248-.352-.31-.79-.464-1.312-.464zm5.49 6.464v-7.936h1.825l.192 1.488a3.279 3.279 0 0 1 1.168-1.216c.5-.31 1.088-.464 1.76-.464v2.16h-.576c-.448 0-.848.07-1.2.208-.352.139-.63.379-.832.72-.192.341-.288.816-.288 1.424V21.5h-2.048zm9.68 0c-.832 0-1.498-.203-2-.608-.501-.405-.752-1.125-.752-2.16v-3.456h-1.36v-1.712h1.36l.24-2.128h1.808v2.128h2.144v1.712h-2.144v3.472c0 .384.08.65.24.8.171.139.459.208.864.208h.992V21.5h-1.392z"/><path fill="#FF5C00" fill-rule="evenodd" d="M18.695 38.79.861 46.976l4.218-19.32 5.154 7.63 8.462 3.506z" clip-rule="evenodd"/></g><defs><clipPath id="a"><path fill="#fff" d="M70 0H0v48h70z"/></clipPath></defs></svg>