<svg xmlns="http://www.w3.org/2000/svg" width="70" height="48" fill="none"><g clip-path="url(#a)"><rect width="59.78" height="32" x="9.773" y="15.721" fill="#7437F6" rx="16"/><path fill="#fff" d="M25.68 37.413c-1.088 0-1.963-.304-2.624-.912-.651-.618-.976-1.493-.976-2.624h2.048c.01.523.133.939.368 1.248.234.31.613.464 1.136.464.49 0 .848-.144 1.072-.432.224-.298.336-.688.336-1.168v-7.968h2.048v7.968c0 1.099-.31 1.947-.928 2.544-.608.587-1.435.88-2.48.88zm8.075 0c-.683 0-1.242-.106-1.68-.32-.437-.224-.763-.517-.976-.88a2.324 2.324 0 0 1-.32-1.2c0-.736.288-1.333.864-1.792.576-.458 1.44-.688 2.592-.688h2.016v-.192c0-.544-.154-.944-.464-1.2-.31-.256-.693-.384-1.152-.384a1.94 1.94 0 0 0-1.088.304c-.31.192-.501.48-.576.864h-2a2.825 2.825 0 0 1 .576-1.504 3.266 3.266 0 0 1 1.312-.976c.533-.235 1.13-.352 1.792-.352 1.13 0 2.021.283 2.672.848.65.566.976 1.366.976 2.4v4.88h-1.744l-.192-1.28a2.934 2.934 0 0 1-.992 1.056c-.416.278-.955.416-1.616.416zm.464-1.6c.587 0 1.04-.192 1.36-.576.33-.384.539-.858.624-1.424H34.46c-.544 0-.933.101-1.168.304a.893.893 0 0 0-.352.72c0 .31.117.55.352.72.235.17.544.256.928.256zm5.835 1.408v-11.52h2.048v6.8l2.816-3.216h2.432l-3.248 3.616 3.776 4.32h-2.56l-3.216-3.984v3.984h-2.048zm12.093.192c-.8 0-1.51-.17-2.128-.512a3.705 3.705 0 0 1-1.456-1.44c-.352-.618-.528-1.333-.528-2.144 0-.821.17-1.552.512-2.192a3.791 3.791 0 0 1 1.44-1.488c.619-.363 1.344-.544 2.176-.544.779 0 1.467.17 2.064.512.597.341 1.061.81 1.392 1.408.341.587.512 1.243.512 1.968 0 .117-.005.24-.016.368 0 .128-.005.262-.016.4h-6.032c.043.619.256 1.104.64 1.456.395.352.87.528 1.424.528.416 0 .763-.09 1.04-.272a1.77 1.77 0 0 0 .64-.736h2.08c-.15.502-.4.96-.752 1.376a3.617 3.617 0 0 1-1.28.96c-.501.235-1.072.352-1.712.352zm.016-6.656c-.501 0-.944.144-1.328.432-.384.277-.63.704-.736 1.28h3.952c-.032-.523-.224-.939-.576-1.248-.352-.31-.79-.464-1.312-.464z"/><path fill="#7437F6" fill-rule="evenodd" d="M18.695 9.045.861.861l4.218 19.32 5.154-7.63 8.462-3.506z" clip-rule="evenodd"/></g><defs><clipPath id="a"><path fill="#fff" d="M0 0h70v48H0z"/></clipPath></defs></svg>