<svg xmlns="http://www.w3.org/2000/svg" width="48" height="48" fill="none"><path fill="#fff" fill-rule="evenodd" d="M37.343 2.893c.226-.61 1.088-.61 1.313 0l1.631 4.406a.7.7 0 0 0 .414.414l4.406 1.63c.61.226.61 1.088 0 1.313l-4.406 1.631a.7.7 0 0 0-.414.414l-1.63 4.406c-.226.61-1.088.61-1.313 0l-1.631-4.406a.7.7 0 0 0-.414-.414l-4.406-1.63c-.61-.226-.61-1.088 0-1.313l4.406-1.631a.7.7 0 0 0 .414-.414l1.63-4.406zm1.313 5.763c-.225-.61-1.087-.61-1.313 0l-.074.2a.7.7 0 0 1-.413.413l-.2.075c-.61.225-.61 1.087 0 1.313l.2.074a.7.7 0 0 1 .413.413l.075.2a.7.7 0 0 0 1.312 0l.075-.2a.7.7 0 0 1 .413-.413l.2-.075c.61-.225.61-1.087 0-1.313l-.2-.074a.7.7 0 0 1-.413-.413l-.075-.2z" clip-rule="evenodd"/><path stroke="#fff" stroke-linecap="round" stroke-linejoin="round" stroke-width="3" d="M42 24v6c0 6.627-5.373 12-12 12H18c-6.627 0-12-5.373-12-12V18c0-6.627 5.373-12 12-12h6"/></svg>